<svg width="24" height="24" viewBox="0 0 24 24" fill="none" xmlns="http://www.w3.org/2000/svg">
<rect width="24" height="24" rx="9" fill="#3FACFF"/>
<path d="M18.5 8C18.7761 8 19 8.22386 19 8.5V13.0518C18.9998 13.5861 18.3535 13.8535 17.9756 13.4756L16.5527 12.0527L13.374 15.2314C12.8273 15.7782 11.9403 15.7782 11.3936 15.2314L9.38379 13.2217L6.76758 15.8379L5 14.0703L8.39355 10.6768L8.5 10.5801C9.01323 10.1615 9.75435 10.1615 10.2676 10.5801L10.374 10.6768L12.3838 12.6865L14.7852 10.2852L13.5244 9.02441C13.1465 8.6465 13.4139 8.00023 13.9482 8H18.5Z" fill="white"/>
</svg>
